<svg xmlns="http://www.w3.org/2000/svg" width="59.09" height="56.087"><defs><linearGradient id="a" x1=".5" x2=".5" y2="1" gradientUnits="objectBoundingBox"><stop offset="0" stop-color="#615cfd"/><stop offset="1" stop-color="#d465ef"/></linearGradient></defs><g data-name="https://www.flaticon.com/free-icon/3d_1077703" fill="url(#a)"><path data-name="Path 2750" d="M40.624 39.935a1.154 1.154 0 101.154 1.154 1.154 1.154 0 00-1.154-1.154zm0 0"/><path data-name="Path 2751" d="M30.699 19.62a1.154 1.154 0 10-1.154 1.154 1.154 1.154 0 001.154-1.154zm0 0"/><path data-name="Path 2752" d="M18.466 42.235a1.154 1.154 0 10-1.154-1.15 1.155 1.155 0 001.154 1.15zm0 0"/><path data-name="Path 2753" d="M58.401 47.724l-6.239-2.772V19.62a1.16 1.16 0 00-.709-1.065L30.701 9.627V1.154a1.154 1.154 0 00-2.308 0v8.473L7.634 18.554a1.161 1.161 0 00-.709 1.065v25.333L.686 47.724a1.154 1.154 0 10.937 2.109l6.463-2.872 21 9.033a1.172 1.172 0 00.912 0l21-9.033 6.463 2.872a1.154 1.154 0 10.937-2.109zM28.391 12.14V15a1.154 1.154 0 002.308 0v-2.86l17.391 7.48-18.545 7.98-18.544-7.98zm-13.09 30.352a1.155 1.155 0 00-1.523-.586l-4.546 2.02V21.372l19.158 8.24v23.57l-17.431-7.5 3.756-1.669a1.155 1.155 0 00.586-1.521zm15.4 10.69v-23.57l19.158-8.24v22.554l-4.546-2.02a1.154 1.154 0 10-.937 2.109l3.756 1.669zm0 0"/></g></svg>