<svg fill="#fff" xmlns="http://www.w3.org/2000/svg" width="16" height="16"><path d="M15 3.297c-.525.226-1.05.395-1.633.451a3.026 3.026 0 001.283-1.523 5.42 5.42 0 01-1.808.677C12.258 2.338 11.5 2 10.683 2 9.108 2 7.825 3.241 7.825 4.764c0 .226 0 .451.058.621-3.008 0-5.07-1.692-6.47-3.385-.292.395-.408.903-.408 1.41 0 .959.525 1.805 1.283 2.313-.467-.056-.933-.169-1.283-.338v.056c0 1.354.992 2.482 2.275 2.708-.234.056-.467.113-.759.113-.175 0-.35 0-.525-.056.35 1.128 1.979 2.426 3.262 2.426C4.267 11.364 3.344 12 1.5 12H1c1.283.79 2.8 1 4.375 1 5.308 0 8.167-4.231 8.167-7.897v-.338c.583-.396 1.05-.903 1.458-1.468"/></svg>